<?xml version="1.0" encoding="utf-8"?>
<svg version="1.1" id="Layer_1" xmlns="http://www.w3.org/2000/svg" xmlns:xlink="http://www.w3.org/1999/xlink" x="0px" y="0px"
	 viewBox="0 0 456.9 114.5" style="enable-background:new 0 0 456.9 114.5;" xml:space="preserve">
<style type="text/css">
	.st0{fill:none;}
	.st1{fill:#F3EFCC;}
</style>
<g>
	<path class="st0" d="M49,52.8l0.3-0.3c0.1-0.1,0.3-0.2,0.4-0.4c-1-0.8-2-1.6-3-2.5l-2.3-2c0.3,0.6,0.6,1.2,1.2,1.7
		C46.8,50.4,47.9,51.6,49,52.8z"/>
	<path class="st0" d="M69.7,47.8c0,0.3,0.1,0.4,0.4,0.3c1-0.2,1.9-0.5,2.9-0.7c1.4-0.3,2.8-0.6,4.2-1c0.4-0.1,0.7-0.3,1-0.5
		c0.3-0.2,0.6-0.6,0.6-1c0.3-1.7,0.7-3.3,0.9-5c0.2-1.5,0.3-2.9,0.4-4.4c-0.7,1-1.6,1.9-2.5,2.7c-2.7,2.3-5.4,4.7-8,7
		c0,0.2,0,0.5,0,0.7C69.6,46.5,69.7,47.1,69.7,47.8z"/>
	<path class="st0" d="M44.2,46.5c-0.2-1.3-0.3-2.7-0.5-4c0-0.4-0.1-0.9-0.2-1.3c-0.1-0.5-0.6-0.5-0.9-0.1c-0.2,0.2-0.3,0.4-0.3,0.6
		c-0.2,0.8-0.4,1.7-0.5,2.6c0,0.4-0.1,0.7-0.1,1.1l2.8,2.4C44.3,47.3,44.2,46.9,44.2,46.5z"/>
	<path class="st0" d="M222.3,98.5c-1.4,1-2.3,2.5-2.3,4.3c0,1.3,0.5,2.6,1.5,3.4c1.1,0.9,2.5,1.4,3.9,1.3c1.8,0,3.6-0.5,5.1-1.4
		c1.5-0.9,2.8-2.2,3.5-3.8v-5.5h-5.5C226.4,96.6,224.2,97.2,222.3,98.5z"/>
	<path class="st0" d="M302.1,98.5c-1.4,1-2.3,2.5-2.3,4.3c0,1.3,0.5,2.6,1.5,3.4c1.1,0.9,2.5,1.4,3.9,1.3c1.8,0,3.6-0.5,5.1-1.4
		c1.5-0.9,2.8-2.2,3.6-3.8l0.1-5.5h-5.4C306.2,96.6,303.9,97.2,302.1,98.5z"/>
	<path class="st0" d="M369.8,90.6c-0.6-1.5-1.7-2.9-3-3.9c-2.8-1.9-6.5-1.9-9.3,0c-1.3,1-2.4,2.3-3,3.9c-0.7,1.7-1,3.6-1,5.5v0.8
		c0,1.9,0.3,3.7,1,5.5c0.6,1.5,1.7,2.9,3,3.9c1.4,1,3,1.5,4.7,1.4c1.7,0,3.3-0.5,4.6-1.4c1.3-1,2.4-2.3,3-3.9
		c0.7-1.7,1.1-3.6,1.1-5.5l0-0.8C370.9,94.2,370.5,92.3,369.8,90.6z"/>
	<path class="st0" d="M134.9,76.8h-8v15.7h8c2.9,0,5.1-0.7,6.5-2.2c1.4-1.5,2.2-3.5,2.2-5.5c0.1-2.1-0.7-4.1-2.2-5.7
		C140.1,77.5,137.9,76.8,134.9,76.8z"/>
	<path class="st0" d="M32.1,43.7c0.1,0.3,0.1,0.6,0.2,0.9c0,0.7,0.5,1.3,1.2,1.6c0.8,0.3,1.7,0.5,2.6,0.7c1.6,0.4,3.3,0.7,4.9,1.1
		c0.5,0.1,0.5,0.1,0.5-0.4c0.1-0.8,0.1-1.6,0.2-2.4c-2.5-2.1-4.9-4.2-7.4-6.3c-1.2-1-2.3-2.1-3.2-3.4c0.1,1.9,0.3,3.8,0.5,5.7
		C31.8,42.1,32,42.9,32.1,43.7z"/>
	<path class="st0" d="M447.3,86.3c-1.2-0.7-2.6-1.1-3.9-1c-1.3,0-2.6,0.4-3.8,1.1c-1.2,0.8-2.1,1.8-2.7,3.1
		c-0.7,1.4-1.2,2.9-1.3,4.4v0.1h15.1l0-0.8c0-1.4-0.3-2.8-0.9-4.1C449.3,88,448.4,87,447.3,86.3z"/>
	<path class="st0" d="M170.2,90.6c-0.6-1.5-1.7-2.9-3-3.9c-2.8-1.9-6.5-1.9-9.3,0c-1.3,1-2.4,2.3-3,3.9c-0.7,1.7-1,3.6-1,5.5v0.8
		c0,1.9,0.3,3.7,1,5.5c0.6,1.5,1.7,2.9,3,3.9c1.4,1,3,1.5,4.7,1.4c1.7,0,3.3-0.5,4.6-1.4c1.3-1,2.4-2.3,3-3.9c0.7-1.7,1-3.6,1-5.5
		l0-0.8C171.2,94.2,170.9,92.3,170.2,90.6z"/>
	<path class="st1" d="M84.6,21.3c0.1,0.2,0.3,0.5,0.5,0.7l1.3-1.1c-0.2-0.1-0.4-0.2-0.6-0.3c-0.3-0.1-0.6-0.2-0.9-0.2
		c-0.2,0-0.4,0.1-0.5,0.3c0,0.1,0,0.2,0,0.2C84.4,21.1,84.5,21.2,84.6,21.3z"/>
	<path class="st1" d="M60.7,65.6c-1.1-1.2-1-2.3,0.2-3.4c0.2-0.2,0.3-0.3,0.5-0.5l-5.9-4.9l-5.9,4.8c0.4,0.4,0.7,0.7,1,1
		c0.7,0.8,0.8,1.7,0.1,2.5c-0.8,0.8-1.6,1.7-2.5,2.4c-0.6,0.6-1.3,1.1-1.9,1.7c0.2,0.2,0.4,0.4,0.6,0.6c0.5,0.4,0.9,0.8,0.8,1.6
		c0,0.1,0,0.1,0,0.2c0.1,0.5,0.2,1,0.2,1.5c0.2,1.2,0.4,2.4,0.6,3.6c0.1,0.9,0.2,1.7,0.7,2.4c0.3,0.5,0.6,1,0.7,1.6
		c0.6,1.9,1,3.9,1.3,5.8c0.3,1.7,0.6,3.4,0.9,5.1c0.1,1,0.7,1.9,1.5,2.5h3.8l0.5-0.5c0.8-0.7,1-1.7,1.2-2.7c0.4-2.2,0.7-4.4,1.1-6.5
		c0.4-2,0.7-4.1,1.8-5.8c0-0.1,0.1-0.1,0.1-0.2c0.1-0.6,0.3-1.1,0.4-1.7c0.3-1.8,0.6-3.5,0.9-5.3c0-0.1,0-0.2,0-0.2
		c-0.1-0.4,0.1-0.7,0.4-1l0.9-0.9c-0.6-0.6-1.3-1.1-1.9-1.7C62.2,66.9,61.4,66.3,60.7,65.6z"/>
	<path class="st1" d="M79.8,26.5l1.3-1.1c-0.3-0.4-0.6-0.6-1-0.4c-0.3,0.1-0.4,0.4-0.4,1C79.7,26.2,79.8,26.3,79.8,26.5z"/>
	<path class="st1" d="M47.5,67.7c0.7-0.6,1.5-1.2,2.2-1.9c1.5-1.5,1.4-2.5-0.4-3.8c-0.5,0.4-0.9,0.8-1.4,1.1
		C46.4,64.2,46.5,66.2,47.5,67.7z"/>
	<path class="st1" d="M61.2,62.6c-1,0.9-1.1,1.8-0.2,2.7c0.8,0.9,1.7,1.6,2.7,2.5c0.2-0.7,0.5-1.2,0.6-1.8c0.3-0.9,0-1.9-0.6-2.6
		c-0.6-0.5-1.2-1-1.8-1.5C61.6,62.2,61.4,62.4,61.2,62.6z"/>
	<path class="st1" d="M88.1,22.6c0.5,0.6,1,1.3,1.4,2l5.1-4.3L108,8.8l-2.7-4.1L87.1,20.3l-0.8,0.6C87,21.4,87.6,22,88.1,22.6z"/>
	<path class="st1" d="M16.8,20.3l5,4.3c-1.4,2.4-2.5,5-3.6,7.6c-1,2.3-1.4,4.6-0.9,7.1c0.1,0.3,0.1,0.6,0.1,1l-0.1,0.1
		c0-0.1-0.1-0.2-0.1-0.2c-0.5-0.6-1-1.3-1.4-2c-1.7-2.7-2-5.6-1.6-8.7c0.1-0.6,0.2-1.3,0.2-1.9c0-0.3-0.2-0.6-0.5-0.7
		c-0.3-0.1-0.6,0-0.8,0.3c-0.1,0.1-0.1,0.2-0.1,0.2c-0.5,1.1-0.9,2.2-1.3,3.3c-0.2,0.8-0.4,1.6-0.6,2.4v3.3c0,0.1,0,0.1,0.1,0.2
		c0.2,1.6,0.8,3,1.8,4.3c1.1,1.4,2.5,2.7,4,3.7c2.4,1.7,5.1,3,7.9,3.9c1.6,0.5,3.3,0.8,5,1.3c1.9,0.5,3.8,1.1,5.8,1.5
		c2,0.4,4,1,5.9,1.6c0.8,0.3,1.5,0.7,2,1.4c0.6,0.6,1.1,1.3,1.7,1.9l3.8-3.2l0.2,0.2c0.1,0.2,0.3,0.3,0.5,0.4
		c0.2,0.2,0.5,0.3,0.9,0.2c0.3,0,0.5,0.1,0.8,0.2c0.5,0.5,1.2,0.6,1.8,0.4c0.4-0.1,0.7-0.2,1.1-0.2c1.1,0,2.2,0,3.4,0
		c0.3,0,0.5,0.1,0.8,0.2c0.5,0.2,1,0.1,1.4-0.3c0.4-0.3,0.7-0.5,1.2-0.3c0.1,0,0.2,0,0.3-0.1c0.2-0.1,0.4-0.2,0.5-0.4l0.4-0.4
		l-0.3-0.3c-0.2-0.1-0.4-0.2-0.6-0.3c1.6-1.3,2.9-2.4,4.3-3.5l1.3-1.1c0.2-0.5,0.3-1.1,0.3-1.7c0.1-1.5,0.4-3,0.6-4.5
		c0-0.1,0-0.2,0.1-0.3c0.2-0.4,0.5-0.5,0.8-0.2c0.2,0.2,0.3,0.5,0.4,0.7c0.3,1.1,0.5,2.3,0.6,3.5l-2.8,2.4c-0.3,0.7-0.7,1.4-1.3,1.8
		c-0.3,0.3-0.6,0.5-0.8,0.8c-0.8,0.8-1.6,1.7-2.5,2.5c1.3,1.1,2.5,2.2,3.8,3.2c0.1-0.1,0.1-0.1,0.2-0.2c0.6-0.6,1.1-1.2,1.6-1.8
		c0.5-0.6,1.2-1.1,1.9-1.3c2-0.7,4-1.2,6.1-1.6c2.1-0.4,4.1-1.1,6.1-1.5c3.1-0.6,6.1-1.5,8.9-3c2.5-1.3,4.8-2.8,6.7-4.8
		c1.2-1.3,2.1-2.7,2.4-4.4c0.5-2.4,0.3-5-0.5-7.3c-0.4-1-0.8-1.9-1.2-2.8c-0.2-0.5-0.5-0.6-0.9-0.5c-0.4,0.1-0.5,0.4-0.5,0.9
		c0,0.3,0,0.6,0.1,0.9c0.4,1.9,0.4,3.9,0.1,5.8c-0.4,2.3-1.6,4.1-3.1,5.8c-0.1,0.1-0.1,0.1-0.2,0.1c0-0.3,0.1-0.6,0.1-0.9
		c0.4-2.1,0.3-4.4-0.6-6.4c-0.7-1.8-1.5-3.6-2.3-5.4c-0.5-1-1-2-1.6-3l-2.3,1.9c1.1,2.7,2,5.5,2.5,8.4c0.3,1.8,0.5,3.7,0.1,5.6
		c-0.3,1.1-0.7,2.2-1.9,2.7c-1.4,0.6-2.9,1.1-4.3,1.7c-0.1,0-0.2,0-0.3,0.1c0-0.3,0-0.5,0-0.7c0.1-1,0.3-2.1,0.4-3.1
		c0.3-3.7,0-7.3-0.9-10.9l-1.8,1.6c0.6,0.9,0.3,1.7-0.1,2.5c-0.2,0.4-0.5,0.9-0.8,1.3c0.1-2.2,0.1-4.4,0-6.6
		c-0.1-0.8-0.2-1.6-0.3-2.4L55.6,47.2c-0.2-0.2-0.4-0.4-0.6-0.5L31.4,26.5C31,28.5,31,30.4,31,32.4c0,1,0,2.1,0.1,3.1
		c-0.2-0.3-0.5-0.6-0.6-1c-0.2-0.3-0.3-0.6-0.5-0.9c-0.3-0.6-0.4-1.3,0.2-1.9c-0.3-0.3-0.6-0.5-0.9-0.7l-1-0.8
		c-0.5,1.9-0.8,3.8-0.9,5.7c-0.2,2.5-0.1,5,0.3,7.5c0.1,0.5,0.1,1,0.2,1.5c-0.1,0-0.1,0-0.2,0c-1.7-0.6-3.4-1.1-4.9-2
		c-0.3-0.2-0.6-0.5-0.8-0.8c-0.7-1.2-0.9-2.5-0.8-3.9c0-2.2,0.4-4.3,1-6.4c0.5-1.8,1.1-3.6,1.8-5.3l-2.2-1.9l0.1-0.1
		c0.6-1.1,1.4-2.1,2.3-2.9c0.2-0.2,0.5-0.4,0.8-0.6l1.3,1.1c0.2-0.3,0.4-0.6,0.6-0.9c0.1-0.2,0.1-0.4,0-0.6
		c-0.1-0.2-0.4-0.2-0.6-0.2c-0.5,0.1-0.9,0.3-1.3,0.5l-0.7-0.6L6.5,5.2C6.4,5,6.2,4.9,6.1,4.7H6C5.2,5.9,4.4,7.1,3.6,8.2
		C3.3,8.6,3.4,8.8,3.7,9.1C8.1,12.8,12.4,16.6,16.8,20.3z M77.6,38.2c0.9-0.8,1.8-1.7,2.5-2.7c-0.1,1.5-0.2,2.9-0.4,4.4
		c-0.2,1.7-0.6,3.3-0.9,5c-0.1,0.4-0.3,0.8-0.6,1c-0.3,0.2-0.6,0.4-1,0.5c-1.4,0.3-2.8,0.6-4.2,1c-1,0.2-1.9,0.5-2.9,0.7
		c-0.3,0.1-0.4,0-0.4-0.3c0-0.6-0.1-1.2-0.1-1.8c0-0.2,0-0.5,0-0.7C72.3,42.9,74.9,40.6,77.6,38.2z M46.8,49.6c1,0.8,2,1.6,3,2.5
		c-0.2,0.2-0.3,0.3-0.4,0.4L49,52.8c-1.1-1.1-2.2-2.3-3.4-3.4c-0.5-0.5-0.9-1-1.2-1.7L46.8,49.6z M34.3,38.9
		c2.4,2.1,4.9,4.2,7.4,6.3c0-0.4,0.1-0.7,0.1-1.1c0.1-0.9,0.3-1.7,0.5-2.6c0.1-0.2,0.2-0.4,0.3-0.6c0.3-0.4,0.7-0.3,0.9,0.1
		c0.1,0.4,0.2,0.9,0.2,1.3c0.2,1.3,0.3,2.7,0.5,4c0,0.4,0.1,0.8,0.3,1.2l-2.8-2.4c-0.1,0.8-0.1,1.6-0.2,2.4c0,0.5,0,0.5-0.5,0.4
		c-1.6-0.4-3.3-0.7-4.9-1.1c-0.9-0.2-1.7-0.5-2.6-0.7c-0.7-0.2-1.1-0.8-1.2-1.6c0-0.3-0.1-0.6-0.2-0.9c-0.2-0.8-0.3-1.7-0.5-2.5
		c-0.3-1.9-0.5-3.8-0.5-5.7C32.1,36.8,33.1,37.9,34.3,38.9z"/>
	<path class="st1" d="M100.3,91.8c-0.6-0.6-1.1-1.2-1.7-1.8c-4.3-4.4-8.8-8.6-13.2-13c-0.8-0.8-1.7-1.4-2.9-1.5
		c-0.6-0.1-1.3-0.3-2-0.4c-0.3,0-0.6-0.2-0.8-0.5c-3.6-5.3-7.3-10.7-10.9-16c-0.2-0.3-0.4-0.5-0.7-0.8L65.9,56
		c-0.3,0.4-0.7,0.7-1,1.1c-0.1,0.1-0.1,0.2-0.1,0.3c0.1,0.7-0.2,1.5-0.8,1.9c-0.2,0.2-0.3,0.4-0.3,0.6c-0.1,0.3-0.1,0.6-0.2,0.9
		c-0.1,0.6,0.1,1.1,0.6,1.5c0.3,0.3,0.6,0.6,0.9,0.9c0.5,0.5,0.5,1.2,0.6,1.9c0.1,0.9,0.1,1.7,0.1,2.6c0,0.6-0.2,1.1-0.6,1.5
		c0,0.1-0.1,0.1-0.1,0.1c0.9,0.8,1.8,1.6,2.6,2.5c3.2,3.6,6.3,7.3,9.4,11c0.8,1,1.7,1.6,3,1.3c0.5-0.1,0.7,0.1,1,0.5
		c1.8,3.2,3.6,6.4,5.3,9.6c2.8,5,5.5,9.9,8.3,14.9c0.1,0.2,0.2,0.4,0.3,0.6l13.4-7.9c-0.3-0.5-0.5-0.9-0.8-1.3
		C105.2,97.5,102.9,94.5,100.3,91.8z"/>
	<path class="st1" d="M85,22.1l-4,3.4c0,0,0,0,0,0c0.8,1.2,1.3,2.6,1.7,4c0.1,0.2,0.1,0.5,0.2,0.7l4.3-3.7c-0.5-1.1-0.9-2.2-1.5-3.3
		C85.5,22.8,85.3,22.4,85,22.1z"/>
	<path class="st1" d="M24,26.5l4.3,3.7c0.3-1.1,0.6-2.2,1-3.2c0.2-0.5,0.5-1,0.8-1.5l1.2,1.1c0-0.1,0-0.2,0.1-0.3
		c0-0.2,0.1-0.4,0-0.6c0-0.4-0.3-0.6-0.6-0.6c-0.2,0-0.5,0.2-0.6,0.4l-0.1,0.1l-4-3.4C25.4,23.5,24.6,25,24,26.5z"/>
	<path class="st1" d="M45.6,66.3c0.1-0.6,0.1-1.2,0.2-1.8c0.1-0.8,0.6-1.6,1.2-2c0.6-0.4,0.9-1.2,0.7-1.9c0-0.2-0.1-0.4-0.1-0.6
		c-0.1-0.3-0.2-0.5-0.5-0.7c-0.5-0.4-0.8-1-0.7-1.6c0-0.2-0.1-0.5-0.3-0.6c-0.1-0.1-0.3-0.2-0.4-0.3L45.3,56L43,57.9
		c-0.2,0.2-0.5,0.4-0.6,0.7c-3.4,5-6.8,9.9-10.2,14.9c-0.8,1.2-1.6,1.9-3.1,2c-1.4,0.1-2.6,0.7-3.6,1.8C22,80.7,18.4,84,14.9,87.5
		c-1.3,1.3-2.6,2.6-3.8,4c-3,3.1-5.7,6.6-8,10.2v0.1c0.1,0.1,0.2,0.1,0.3,0.2l12.5,7.3c0.2,0.1,0.4,0.2,0.6,0.3
		c1.1-2,2.2-3.9,3.3-5.9l5.3-9.5c1.8-3.2,3.6-6.5,5.4-9.7c0.1-0.3,0.5-0.5,0.8-0.5c0.5,0.1,1,0.1,1.5,0c0.3,0,0.5-0.1,0.7-0.3
		c3.4-4,6.8-8,10.2-11.9c0.8-0.9,1.7-1.8,2.6-2.6C45.6,68.5,45.4,67.4,45.6,66.3z"/>
	<polygon class="st1" points="149.5,47.9 149.5,54.9 171.7,54.9 171.7,47.9 166.6,46.8 166.6,13.3 171.7,12.2 171.7,5.2 166.6,5.2 
		154.6,5.2 149.5,5.2 149.5,12.2 154.6,13.3 154.6,25.9 136.6,25.9 136.6,13.3 141.7,12.2 141.7,5.2 119.4,5.2 119.4,12.2 
		124.6,13.3 124.6,46.8 119.4,47.9 119.4,54.9 141.7,54.9 141.7,47.9 136.6,46.8 136.6,35.1 154.6,35.1 154.6,46.8 	"/>
	<path class="st1" d="M221.1,37.8V13.4l5.2-1.1v-7H204v7l5.1,1.1v24.4c0.1,1.7-0.3,3.4-1,5c-0.7,1.3-1.8,2.3-3.1,2.9
		c-1.6,0.7-3.3,1-5,1c-1.7,0.1-3.4-0.3-4.9-1c-1.3-0.6-2.4-1.6-3.1-2.9c-0.8-1.6-1.1-3.3-1.1-5V13.4l5.1-1.1v-7h-22.3v7l5.1,1.1
		v24.4c-0.1,3.4,0.8,6.8,2.6,9.8c1.8,2.7,4.3,4.8,7.3,6c3.5,1.5,7.4,2.2,11.2,2.1c3.8,0.1,7.5-0.6,11-2.1c3-1.3,5.6-3.4,7.4-6.2
		C220.3,44.5,221.2,41.2,221.1,37.8z"/>
	<polygon class="st1" points="276.2,13.3 281.4,12.2 281.4,5.2 276.2,5.2 259.1,5.2 259.1,12.2 265.6,13.3 265.6,37 265.4,37 
		245.5,5.2 233.3,5.2 228.2,5.2 228.2,12.2 233.3,13.3 233.3,46.8 228.2,47.9 228.2,54.9 250.5,54.9 250.5,47.9 243.9,46.8 
		243.9,23.8 244.1,23.8 264.4,54.9 276.2,54.9 	"/>
	<polygon class="st1" points="282.3,19.8 291.3,19.8 291.7,14.5 299.3,14.5 299.3,46.8 294.1,47.9 294.1,54.9 316.5,54.9 
		316.5,47.9 311.3,46.8 311.3,14.5 319.1,14.5 319.3,19.8 328.5,19.8 328.5,5.2 282.3,5.2 	"/>
	<polygon class="st1" points="352.5,47.9 347.3,46.8 347.3,13.3 352.5,12.2 352.5,5.2 330.2,5.2 330.2,12.2 335.4,13.3 335.4,46.8 
		330.2,47.9 330.2,54.9 352.5,54.9 	"/>
	<polygon class="st1" points="377.5,47.9 370.9,46.8 370.9,23.8 371.1,23.8 391.4,54.9 403.2,54.9 403.2,13.3 408.4,12.2 408.4,5.2 
		403.2,5.2 386.1,5.2 386.1,12.2 392.6,13.3 392.6,37 392.4,37 372.5,5.2 360.3,5.2 355.2,5.2 355.2,12.2 360.3,13.3 360.3,46.8 
		355.2,47.9 355.2,54.9 377.5,54.9 	"/>
	<path class="st1" d="M436.2,29.8v8.2l5.6,0.7v6.4c-1.1,0.4-2.2,0.8-3.3,1c-1.4,0.3-2.8,0.4-4.3,0.4c-2.4,0.1-4.8-0.5-6.9-1.8
		c-1.9-1.2-3.4-3-4.2-5.1c-1-2.5-1.5-5.1-1.5-7.8v-2.3c-0.1-2.9,0.4-5.7,1.4-8.4c0.8-2.2,2.2-4.2,4.1-5.7c2-1.4,4.4-2.1,6.9-2
		c1.6,0,3.3,0.2,4.8,0.8c1.2,0.4,2.4,1.1,3.3,2l1.8,6.3h8.5V10.9c-2.6-2.2-5.7-3.9-9-4.9c-3.3-1-6.7-1.5-10.2-1.6
		c-4.4-0.1-8.8,1-12.7,3.2c-3.5,2.1-6.3,5.2-8,8.9c-1.9,4.1-2.9,8.6-2.8,13.1v2.3c-0.1,4.3,0.9,8.5,2.8,12.4
		c1.8,3.5,4.7,6.4,8.1,8.3c4,2.1,8.5,3.1,13,3c3.7,0,7.4-0.4,11-1.3c3.2-0.8,6.3-2.1,9.1-3.9V29.8H436.2z"/>
	<path class="st1" d="M141.3,75.6c-2-0.9-4.1-1.3-6.3-1.3h-14.9v2.1l4,0.3v30.4l-3.9,0.3v2.1h10.8v-2.1l-4-0.3V94.9h8
		c2.2,0.1,4.3-0.4,6.3-1.3c1.6-0.8,3-2,3.9-3.6c1.8-3.4,1.8-7.5,0-10.9C144.3,77.6,142.9,76.3,141.3,75.6z M141.5,90.2
		c-1.5,1.5-3.6,2.2-6.5,2.2h-8V76.8h8c2.9,0,5.1,0.7,6.6,2.2c1.4,1.5,2.2,3.6,2.2,5.7C143.7,86.7,142.9,88.7,141.5,90.2z"/>
	<path class="st1" d="M168.6,84.5c-1.8-1.2-4-1.7-6.1-1.7c-2.1,0-4.3,0.5-6.1,1.7c-1.8,1.2-3.2,2.8-4.1,4.7c-1,2.1-1.5,4.5-1.4,6.8
		v0.8c0,2.4,0.4,4.7,1.4,6.8c0.9,1.9,2.3,3.5,4.1,4.7c1.8,1.1,4,1.7,6.1,1.7c2.1,0,4.3-0.5,6.1-1.7c1.7-1.2,3.1-2.8,4-4.7
		c1-2.1,1.5-4.5,1.4-6.8v-0.8c0-2.4-0.4-4.7-1.4-6.9C171.8,87.3,170.4,85.7,168.6,84.5z M170.2,102.3c-0.6,1.5-1.7,2.9-3,3.9
		c-1.3,1-3,1.5-4.6,1.4c-1.7,0-3.3-0.5-4.7-1.4c-1.3-1-2.4-2.3-3-3.9c-0.7-1.7-1-3.6-1-5.5v-0.8c0-1.9,0.3-3.7,1-5.5
		c0.6-1.5,1.7-2.9,3-3.9c2.8-1.9,6.5-1.9,9.3,0c1.3,1,2.4,2.3,3,3.9c0.7,1.7,1,3.6,1,5.5l0,0.8C171.3,98.7,170.9,100.6,170.2,102.3z
		"/>
	<path class="st1" d="M192.7,82.9c-1.6,0-3.2,0.4-4.6,1.4c-1.3,1-2.4,2.3-3,3.8v-0.7l-0.3-4h-6.5v2.1l3.9,0.3v21.3l-3.9,0.3v2.1
		h10.8v-2.1l-4-0.3V91.7c0.4-1.7,1.2-3.2,2.5-4.4c1.2-1.1,2.9-1.7,4.5-1.6l2.7,0.2l0.4-2.7c-0.3-0.1-0.7-0.2-1.1-0.2
		C193.6,82.9,193.2,82.9,192.7,82.9z"/>
	<path class="st1" d="M211,107.6c-0.5,0.1-1.1,0.1-1.6,0.1c-1,0-1.9-0.4-2.5-1.1c-0.7-1.1-1-2.4-0.9-3.8V85.7h6.1v-2.4H206v-6.7H203
		v6.7h-4.5v2.4h4.5v17.1c0,2.5,0.5,4.4,1.5,5.5c1.1,1.2,2.7,1.8,4.3,1.7c0.7,0,1.5,0,2.2-0.1c0.7-0.1,1.3-0.2,2-0.4l-0.4-2.1
		L211,107.6z"/>
	<path class="st1" d="M237.1,105.8c0-0.5,0-1,0-1.5V91.6c0.1-2.4-0.8-4.8-2.5-6.5c-1.7-1.5-4-2.3-7.1-2.3c-1.7,0-3.3,0.3-4.9,0.8
		c-1.4,0.5-2.7,1.3-3.9,2.3v5.5h2.4l0.2-4c0.8-0.7,1.7-1.2,2.6-1.6c1.1-0.4,2.3-0.6,3.4-0.6c1.9-0.1,3.7,0.5,5.1,1.7
		c1.1,1.2,1.8,2.9,1.7,4.6v3h-5.4c-2.1-0.1-4.2,0.3-6.1,1c-1.6,0.6-3,1.5-4,2.8c-0.9,1.2-1.4,2.7-1.4,4.3c-0.1,2,0.7,4,2.1,5.4
		c1.6,1.4,3.7,2.1,5.8,2c1.8,0,3.6-0.4,5.2-1.3c1.5-0.8,2.8-2,3.8-3.4c0,0.7,0.1,1.3,0.1,2c0.1,0.6,0.2,1.3,0.4,2.3h5.7v-2.1
		l-3.1-0.1C237.1,106.8,237.1,106.3,237.1,105.8z M234.1,102.3c-0.8,1.6-2,2.9-3.5,3.8c-1.5,0.9-3.3,1.4-5.1,1.4
		c-1.4,0.1-2.8-0.4-3.9-1.3c-1-0.9-1.5-2.1-1.5-3.4c0-1.7,0.9-3.3,2.3-4.3c1.9-1.3,4.1-1.9,6.3-1.7h5.5V102.3z"/>
	<polygon class="st1" points="250.8,71.8 243.9,71.8 243.9,73.9 247.9,74.2 247.9,107.1 243.9,107.4 243.9,109.5 254.7,109.5 
		254.7,107.4 250.8,107.1 	"/>
	<polygon class="st1" points="289.8,107.2 275.3,107.2 291.2,85.5 291.2,83.3 271.8,83.3 271.8,90.9 274.2,90.9 274.5,85.8 
		287.5,85.8 271.6,107.4 271.6,109.5 292.4,109.5 292.4,102 290.1,102 	"/>
	<path class="st1" d="M316.8,105.8c0-0.5-0.1-1-0.1-1.5V91.6c0.1-2.4-0.8-4.8-2.5-6.5c-1.7-1.5-4-2.3-7.1-2.3
		c-1.7,0-3.3,0.3-4.9,0.8c-1.4,0.5-2.7,1.3-3.8,2.3v5.5h2.4l0.3-4c0.8-0.7,1.7-1.2,2.6-1.6c1.1-0.4,2.3-0.6,3.4-0.6
		c1.9-0.1,3.7,0.5,5.1,1.7c1.1,1.2,1.8,2.9,1.7,4.6v3h-5.4c-2.1-0.1-4.2,0.3-6.1,1c-1.6,0.6-2.9,1.5-4,2.8c-0.9,1.2-1.4,2.7-1.4,4.3
		c-0.1,2,0.7,4,2.1,5.4c1.6,1.4,3.7,2.1,5.8,2c1.8,0,3.6-0.4,5.2-1.3c1.5-0.8,2.8-2,3.8-3.4c0,0.7,0.1,1.4,0.1,2s0.2,1.4,0.4,2.3
		h5.7v-2.1l-3.1-0.1C316.9,106.8,316.8,106.3,316.8,105.8z M313.8,102.3c-0.8,1.6-2,2.9-3.6,3.8c-1.5,0.9-3.3,1.4-5.1,1.4
		c-1.4,0.1-2.8-0.4-3.9-1.3c-1-0.9-1.5-2.1-1.5-3.4c0-1.7,0.9-3.3,2.3-4.3c1.9-1.3,4.1-1.9,6.4-1.7h5.4L313.8,102.3z"/>
	<polygon class="st1" points="342.6,71.8 335.8,71.8 335.8,73.9 339.7,74.2 339.7,107.1 335.8,107.4 335.8,109.5 346.6,109.5 
		346.6,107.4 342.6,107.1 	"/>
	<path class="st1" d="M368.3,84.5c-3.8-2.3-8.5-2.3-12.2,0c-1.8,1.2-3.2,2.8-4,4.7c-1,2.1-1.5,4.5-1.4,6.8v0.8
		c0,2.4,0.4,4.7,1.4,6.8c0.9,1.9,2.3,3.5,4,4.7c3.8,2.2,8.4,2.2,12.2,0c1.7-1.2,3.1-2.8,4-4.7c1-2.1,1.5-4.5,1.4-6.8v-0.8
		c0-2.4-0.4-4.7-1.4-6.9C371.4,87.3,370,85.7,368.3,84.5z M369.8,102.3c-0.6,1.5-1.7,2.9-3,3.9c-1.3,1-3,1.5-4.6,1.4
		c-1.7,0-3.3-0.5-4.7-1.4c-1.3-1-2.4-2.3-3-3.9c-0.7-1.7-1-3.6-1-5.5v-0.8c0-1.9,0.3-3.7,1-5.5c0.6-1.5,1.7-2.9,3-3.9
		c2.8-1.9,6.5-1.9,9.3,0c1.3,1,2.4,2.3,3,3.9c0.7,1.7,1.1,3.6,1,5.5l0,0.8C370.9,98.7,370.5,100.6,369.8,102.3z"/>
	<polygon class="st1" points="394.2,85.5 397.7,85.7 391.1,103 390.1,105.9 389.9,105.9 389,103 382.2,85.7 385.6,85.5 385.6,83.3 
		376.4,83.3 376.4,85.5 379.2,85.6 388.7,109.5 391.3,109.5 400.6,85.6 403.4,85.5 403.4,83.3 394.2,83.3 	"/>
	<path class="st1" d="M424.4,101.6c-0.2,1.8-1,3.4-2.4,4.5c-1.4,1.1-3.1,1.6-4.9,1.5c-1.6,0-3.1-0.4-4.4-1.3c-1.3-1-2.3-2.3-2.9-3.8
		c-0.7-1.8-1-3.7-1-5.6v-1c0-1.9,0.3-3.7,1-5.5c0.6-1.5,1.6-2.8,2.9-3.8c1.3-0.9,2.8-1.4,4.3-1.4c1.3,0,2.6,0.2,3.7,0.7
		c1.1,0.5,2,1.1,2.8,2l0.4,4.9h2.4l0-5.9c-2.4-2.7-5.8-4.2-9.4-4.1c-2.1-0.1-4.1,0.5-5.9,1.7c-1.7,1.1-3,2.7-3.9,4.6
		c-1,2.1-1.4,4.5-1.4,6.8v1c0,2.4,0.4,4.7,1.4,6.8c0.9,1.9,2.2,3.5,3.9,4.6c1.7,1.1,3.7,1.7,5.8,1.6c1.7,0.1,3.5-0.3,5.1-1
		c1.4-0.7,2.6-1.7,3.4-3c0.8-1.3,1.4-2.8,1.5-4.4l0-0.1L424.4,101.6z"/>
	<path class="st1" d="M448.8,84.2c-1.7-1-3.6-1.4-5.5-1.4c-2,0-3.9,0.6-5.5,1.7c-1.7,1.2-3.1,2.8-3.9,4.6c-1,2.1-1.5,4.4-1.5,6.7
		v1.3c0,2.3,0.4,4.6,1.5,6.7c0.9,1.8,2.3,3.4,4,4.5c1.8,1.1,3.8,1.7,5.9,1.6c1.8,0,3.5-0.3,5.2-1c1.4-0.6,2.6-1.4,3.7-2.4l-1.2-2
		c-1,0.9-2.1,1.6-3.3,2.1c-1.4,0.6-2.9,0.8-4.4,0.8c-1.6,0-3.1-0.4-4.4-1.3c-1.3-0.9-2.4-2.1-3-3.6c-0.7-1.6-1.1-3.4-1.1-5.2l0-1.1
		h18.2V94c0-2-0.4-4.1-1.2-5.9C451.5,86.5,450.3,85.1,448.8,84.2z M450.7,94.1h-15.1v-0.1c0.1-1.5,0.6-3,1.3-4.4
		c0.6-1.2,1.6-2.3,2.7-3.1c1.1-0.8,2.4-1.1,3.8-1.1c1.4-0.1,2.7,0.3,3.9,1c1.1,0.7,2,1.7,2.5,2.9c0.6,1.3,0.9,2.7,0.9,4.1
		L450.7,94.1z"/>
</g>
</svg>